<?xml version="1.0" encoding="utf-8"?>
<!-- Generator: Adobe Illustrator 24.3.0, SVG Export Plug-In . SVG Version: 6.00 Build 0)  -->
<svg version="1.1" id="圖層_1" xmlns="http://www.w3.org/2000/svg" xmlns:xlink="http://www.w3.org/1999/xlink" x="0px" y="0px"
	 viewBox="0 0 50 50" style="enable-background:new 0 0 50 50;" xml:space="preserve">
<path d="M25,9.5c-8.2,0-14.9,6.6-14.9,14.7c0,6,3.6,11.2,8.8,13.4v6.4c0,0.5,0.5,0.9,1.3,1.2c0.2,1.5,2.2,2.7,4.6,2.7
	c2.3,0,4.2-1.1,4.5-2.4c1.2-0.4,2-0.9,2-1.4v-6.6c5-2.4,8.5-7.4,8.5-13.3C39.9,16.1,33.2,9.5,25,9.5z M28.9,37.5v5.6
	c-0.1,0-0.1,0-0.2,0.1l-1.4,0.4L27,44.8c-0.2,0.2-0.9,0.6-2.1,0.6c-1.2,0-1.9-0.4-2.1-0.6l-0.2-1.3l-1.1-0.4v-5.4V36l-1.5-0.7
	c-4.5-2-7.4-6.4-7.4-11.2C12.6,17.5,18.2,12,25,12c6.8,0,12.4,5.5,12.4,12.2c0,2.4-0.7,4.6-2,6.6c-1.3,1.9-3,3.5-5.1,4.4l-1.4,0.7
	V37.5z M31.2,28l-3.7,6.9l-2.2-1.2l2.7-5.1h-6.1l2.7,5.1l-2.2,1.2L18.8,28l1.1-0.6v-1.2h10.3v1.2L31.2,28z M0,17.9h7.1v2.5H0V17.9z
	 M42.9,17.9H50v2.5h-7.1V17.9z M7.5,5.2l5.1,5.1L10.8,12L5.8,6.9L7.5,5.2z M37.4,10.2l5.1-5.1l1.8,1.8L39.2,12L37.4,10.2z M23.8,7
	v-7.1h2.5V7H23.8z"/>
</svg>
