<?xml version="1.0" encoding="utf-8"?>
<!-- Generator: Adobe Illustrator 24.3.0, SVG Export Plug-In . SVG Version: 6.00 Build 0)  -->
<svg version="1.1" id="圖層_1" xmlns="http://www.w3.org/2000/svg" xmlns:xlink="http://www.w3.org/1999/xlink" x="0px" y="0px"
	 viewBox="0 0 50 50" style="enable-background:new 0 0 50 50;" xml:space="preserve">
<g>
	<path d="M45.3,10.8h-5.7c0-4.8-6.2-8.5-14.2-8.5S11.3,6,11.3,10.8H4.7c-2.6,0-4.7,2.1-4.7,4.7V41c0,2.6,2.1,4.7,4.7,4.7h40.6
		c2.6,0,4.7-2.1,4.7-4.7V15.5C50,12.9,47.9,10.8,45.3,10.8z M25.5,4.2c6.6,0,12.3,3,12.3,6.6H13.2C13.2,7.2,18.8,4.2,25.5,4.2z
		 M1.9,15.5c0-1.6,1.3-2.8,2.8-2.8h40.6c1.6,0,2.8,1.3,2.8,2.8v11.8H29.9c-0.6-1.9-2.4-3.3-4.5-3.3s-3.9,1.4-4.5,3.3H1.9V15.5z
		 M48.1,41c0,1.6-1.3,2.8-2.8,2.8H4.7c-1.6,0-2.8-1.3-2.8-2.8V29.2h18.9c0.2,2.4,2.2,4.2,4.7,4.2s4.4-1.9,4.7-4.2h18V41z"/>
</g>
</svg>
