<?xml version="1.0" encoding="utf-8"?>
<!-- Generator: Adobe Illustrator 24.3.0, SVG Export Plug-In . SVG Version: 6.00 Build 0)  -->
<svg version="1.1" id="圖層_1" xmlns="http://www.w3.org/2000/svg" xmlns:xlink="http://www.w3.org/1999/xlink" x="0px" y="0px"
	 viewBox="0 0 50 50" style="enable-background:new 0 0 50 50;" xml:space="preserve">
<path d="M46.9,20.8L24.3,8.7L0,20.8l9.6,3.8v9.1c0,4.2,6.3,7.7,14.1,7.7c7.8,0,14.1-3.4,14.1-7.7v-9.1L46.9,20.8z M23.7,39.7
	c-3.6,0-6.9-0.7-9.4-2.1c-1.1-0.6-2-1.3-2.6-2.1c-0.5-0.6-0.8-1.3-0.8-1.9v-8.6l13.3,5.3l12.2-5.2v8.5c0,0.6-0.3,1.3-0.8,1.9
	c-0.6,0.7-1.5,1.5-2.6,2.1C30.7,39,27.3,39.7,23.7,39.7z M24.2,10.4l19,10.2l-19,8l-20.4-8L24.2,10.4z M46.9,25.5l-3,9.5H50
	L46.9,25.5z M46.9,30.1l1.1,3.4h-2.2L46.9,30.1z"/>
</svg>
