<svg xmlns="http://www.w3.org/2000/svg" width="218" height="201.2" viewBox="0 0 218 201.2"><g transform="translate(-15.65 -24)"><path d="M49.65,34H189.88L172.49,50h12.77l17.39-16V27a3,3,0,0,0-3-3h-150a3,3,0,0,0-3,3v4a3,3,0,0,0,3,3Z" fill="#1a959e"/><path d="M49.65,108h49V98h-49a3,3,0,0,0-3,3v4A3,3,0,0,0,49.65,108Z" fill="#1a959e"/><path d="M49.65,140h49V130h-49a3,3,0,0,0-3,3v4A3,3,0,0,0,49.65,140Z" fill="#1a959e"/><path d="M202.65,101a3,3,0,0,0-3-3h-49v10h49a3,3,0,0,0,3-3Z" fill="#1a959e"/><path d="M199.65,130h-49v10h49a3,3,0,0,0,3-3v-4a3,3,0,0,0-3-3Z" fill="#1a959e"/><rect width="10" height="113" rx="3" transform="translate(119.65 57)" fill="#1a959e"/><path d="M230.65,57h-19a3,3,0,0,0-3,3v4a3,3,0,0,0,3,3h12V179h-198V67h12a3,3,0,0,0,3-3V60a3,3,0,0,0-3-3h-19a3,3,0,0,0-3,3V186h0a3,3,0,0,0,3,3h212a3,3,0,0,0,3-3h0V60A3,3,0,0,0,230.65,57Z" fill="#1a959e"/><path d="M40.27,224.58c.07-1.53.1-9.61.1-10.51v-3.73c0-.59-.1-9.13-.17-10h3.46c-.07.62-.17,7.68-.17,8.3v2.69l15.41-.65V208c0-.59-.07-6.81-.14-7.57h3.53c-.11.83-.28,10.16-.28,11v3.46c0,.45.07,9.09.14,9.75H58.69c.11-1.18.21-7.33.21-8V213l-15.41.65v2.22c0,1.55.1,7.91.13,8.71Z" fill="#1a959e"/><path d="M67.67,223.68C69.33,220.74,78.32,204.12,79,203h.07c2.66,4.19,10.12,17.42,12.16,20.5l-2.8,1.69c-.55-1.1-3.8-6.91-4.11-7.43l-10.68.42c-.41.93-2.83,6-3.32,7Zm15.59-8.06c-.35-.65-4-7.29-4.29-7.77-.45.69-3.87,7.64-4.14,8.12Z" fill="#1a959e"/><path d="M95.21,224.58c.17-2.22,1-18.7,1.18-21.74h.17c.9,1,15.31,15.48,16.28,16.41,0-.83.07-14.41.1-15.38L116,204c-.14,1.76-.73,13.79-.87,21.19H115c-.89-.8-16-15.9-16.41-16.32h-.07c.07.56-.17,14.93-.14,15.9Z" fill="#1a959e"/><path d="M134.91,224.58c.07-1.53.11-9.61.11-10.51v-3.73c0-.59-.11-9.13-.18-10h3.46c-.07.62-.17,7.68-.17,8.3v2.69l15.41-.65V208c0-.59-.07-6.81-.14-7.57h3.53c-.11.83-.28,10.16-.28,11v3.46c0,.45.07,9.09.14,9.75h-3.46c.11-1.18.21-7.33.21-8V213l-15.41.65v2.22c0,1.55.1,7.91.14,8.71Z" fill="#1a959e"/><path d="M162.31,223.68C164,220.74,173,204.12,173.65,203h.07c2.66,4.19,10.12,17.42,12.16,20.5l-2.8,1.69c-.55-1.1-3.8-6.91-4.11-7.43l-10.68.42c-.41.93-2.83,6-3.32,7Zm15.59-8.06c-.35-.65-4-7.29-4.29-7.77-.45.69-3.87,7.64-4.14,8.12Z" fill="#1a959e"/><path d="M189.85,224.58c.18-2.22,1-18.7,1.18-21.74h.17c.9,1,15.31,15.48,16.28,16.41,0-.83.07-14.41.1-15.38l3.08.14c-.14,1.76-.73,13.79-.87,21.19h-.13c-.9-.8-16-15.9-16.42-16.32h-.07c.07.56-.17,14.93-.14,15.9Z" fill="#1a959e"/></g></svg>